<mxfile host="Electron" agent="Mozilla/5.0 (Windows NT 10.0; Win64; x64) AppleWebKit/537.36 (KHTML, like Gecko) draw.io/24.7.8 Chrome/128.0.6613.36 Electron/32.0.1 Safari/537.36" version="24.7.8">
  <diagram name="Page-1" id="MVXlBgBHZOSEyvicmYbX">
    <mxGraphModel dx="1434" dy="836" grid="1" gridSize="10" guides="1" tooltips="1" connect="1" arrows="1" fold="1" page="1" pageScale="1" pageWidth="850" pageHeight="1100" math="0" shadow="0">
      <root>
        <mxCell id="0" />
        <mxCell id="1" parent="0" />
        <mxCell id="QbsXGuNljw_qYiaYvnXY-1" value="Controller x3" style="image;points=[];aspect=fixed;html=1;align=center;shadow=0;dashed=0;image=img/lib/allied_telesis/computer_and_terminals/Server_Desktop.svg;" vertex="1" parent="1">
          <mxGeometry x="120" y="160" width="86.78" height="110" as="geometry" />
        </mxCell>
        <mxCell id="QbsXGuNljw_qYiaYvnXY-2" value="Network x3" style="image;points=[];aspect=fixed;html=1;align=center;shadow=0;dashed=0;image=img/lib/allied_telesis/computer_and_terminals/Server_Desktop.svg;" vertex="1" parent="1">
          <mxGeometry x="382" y="160" width="86.78" height="110" as="geometry" />
        </mxCell>
        <mxCell id="QbsXGuNljw_qYiaYvnXY-3" value="Compute xn" style="image;points=[];aspect=fixed;html=1;align=center;shadow=0;dashed=0;image=img/lib/allied_telesis/computer_and_terminals/Server_Desktop.svg;" vertex="1" parent="1">
          <mxGeometry x="650" y="160" width="86.78" height="110" as="geometry" />
        </mxCell>
        <mxCell id="QbsXGuNljw_qYiaYvnXY-4" value="" style="endArrow=none;html=1;rounded=0;" edge="1" parent="1">
          <mxGeometry width="50" height="50" relative="1" as="geometry">
            <mxPoint x="120" y="300" as="sourcePoint" />
            <mxPoint x="740" y="300" as="targetPoint" />
          </mxGeometry>
        </mxCell>
        <mxCell id="QbsXGuNljw_qYiaYvnXY-5" value="enp0s31f6" style="rounded=1;whiteSpace=wrap;html=1;" vertex="1" parent="1">
          <mxGeometry x="120" y="300" width="80" height="40" as="geometry" />
        </mxCell>
        <mxCell id="QbsXGuNljw_qYiaYvnXY-6" value="VLAN 4050" style="rounded=1;whiteSpace=wrap;html=1;align=right;fillColor=#d5e8d4;strokeColor=#82b366;" vertex="1" parent="1">
          <mxGeometry x="40" y="400" width="860" height="60" as="geometry" />
        </mxCell>
        <mxCell id="QbsXGuNljw_qYiaYvnXY-7" value="VLAN 4000" style="rounded=1;whiteSpace=wrap;html=1;align=right;fillColor=#f8cecc;strokeColor=#b85450;" vertex="1" parent="1">
          <mxGeometry x="40" y="504" width="860" height="60" as="geometry" />
        </mxCell>
        <mxCell id="QbsXGuNljw_qYiaYvnXY-8" value="VLAN 4001" style="rounded=1;whiteSpace=wrap;html=1;align=right;fillColor=#fff2cc;strokeColor=#d6b656;" vertex="1" parent="1">
          <mxGeometry x="40" y="614" width="860" height="60" as="geometry" />
        </mxCell>
        <mxCell id="QbsXGuNljw_qYiaYvnXY-9" value="VLAN 4002" style="rounded=1;whiteSpace=wrap;html=1;align=right;fillColor=#e1d5e7;strokeColor=#9673a6;" vertex="1" parent="1">
          <mxGeometry x="40" y="714" width="860" height="60" as="geometry" />
        </mxCell>
        <mxCell id="QbsXGuNljw_qYiaYvnXY-10" value="Management + Internal API (Private subnet)&lt;div&gt;172.29.12.0/24&lt;/div&gt;" style="text;html=1;align=center;verticalAlign=middle;whiteSpace=wrap;rounded=0;fillColor=default;" vertex="1" parent="1">
          <mxGeometry x="230" y="511.5" width="530" height="45" as="geometry" />
        </mxCell>
        <mxCell id="QbsXGuNljw_qYiaYvnXY-11" value="&lt;div&gt;Tunnel Network (Private subnet)&lt;/div&gt;&lt;div&gt;172.29.13.0/24&lt;/div&gt;" style="text;html=1;align=center;verticalAlign=middle;whiteSpace=wrap;rounded=0;fillColor=default;" vertex="1" parent="1">
          <mxGeometry x="230" y="621.5" width="530" height="45" as="geometry" />
        </mxCell>
        <mxCell id="QbsXGuNljw_qYiaYvnXY-12" value="&lt;div&gt;Storage iSCSI (Private subnet)&lt;/div&gt;&lt;div&gt;172.29.14.0/24&lt;/div&gt;" style="text;html=1;align=center;verticalAlign=middle;whiteSpace=wrap;rounded=0;fillColor=default;" vertex="1" parent="1">
          <mxGeometry x="230" y="721.5" width="530" height="45" as="geometry" />
        </mxCell>
        <mxCell id="QbsXGuNljw_qYiaYvnXY-13" value="" style="endArrow=none;html=1;rounded=0;entryX=0.25;entryY=1;entryDx=0;entryDy=0;exitX=0.116;exitY=0.017;exitDx=0;exitDy=0;exitPerimeter=0;strokeWidth=5;fillColor=#d5e8d4;strokeColor=#82b366;" edge="1" parent="1" source="QbsXGuNljw_qYiaYvnXY-6" target="QbsXGuNljw_qYiaYvnXY-5">
          <mxGeometry width="50" height="50" relative="1" as="geometry">
            <mxPoint x="400" y="450" as="sourcePoint" />
            <mxPoint x="450" y="400" as="targetPoint" />
          </mxGeometry>
        </mxCell>
        <mxCell id="QbsXGuNljw_qYiaYvnXY-14" value="" style="endArrow=none;html=1;rounded=0;entryX=0.5;entryY=1;entryDx=0;entryDy=0;fillColor=#f8cecc;strokeColor=#b85450;strokeWidth=5;exitX=0.14;exitY=0.017;exitDx=0;exitDy=0;exitPerimeter=0;" edge="1" parent="1" source="QbsXGuNljw_qYiaYvnXY-7" target="QbsXGuNljw_qYiaYvnXY-5">
          <mxGeometry width="50" height="50" relative="1" as="geometry">
            <mxPoint x="160" y="500" as="sourcePoint" />
            <mxPoint x="150" y="350" as="targetPoint" />
          </mxGeometry>
        </mxCell>
        <mxCell id="QbsXGuNljw_qYiaYvnXY-15" value="" style="endArrow=none;html=1;rounded=0;entryX=0.75;entryY=1;entryDx=0;entryDy=0;exitX=0.163;exitY=0.025;exitDx=0;exitDy=0;exitPerimeter=0;fillColor=#fff2cc;strokeColor=#d6b656;strokeWidth=5;" edge="1" parent="1" source="QbsXGuNljw_qYiaYvnXY-8" target="QbsXGuNljw_qYiaYvnXY-5">
          <mxGeometry width="50" height="50" relative="1" as="geometry">
            <mxPoint x="170" y="490" as="sourcePoint" />
            <mxPoint x="170" y="350" as="targetPoint" />
          </mxGeometry>
        </mxCell>
        <mxCell id="QbsXGuNljw_qYiaYvnXY-16" value="Provider vSwitch" style="sketch=0;points=[[0.015,0.015,0],[0.985,0.015,0],[0.985,0.985,0],[0.015,0.985,0],[0.25,0,0],[0.5,0,0],[0.75,0,0],[1,0.25,0],[1,0.5,0],[1,0.75,0],[0.75,1,0],[0.5,1,0],[0.25,1,0],[0,0.75,0],[0,0.5,0],[0,0.25,0]];verticalLabelPosition=bottom;html=1;verticalAlign=top;aspect=fixed;align=center;pointerEvents=1;shape=mxgraph.cisco19.rect;prIcon=l2_switch;fillColor=#FAFAFA;strokeColor=#005073;" vertex="1" parent="1">
          <mxGeometry x="950" y="405" width="50" height="50" as="geometry" />
        </mxCell>
        <mxCell id="QbsXGuNljw_qYiaYvnXY-17" value="MGMT vSwitch" style="sketch=0;points=[[0.015,0.015,0],[0.985,0.015,0],[0.985,0.985,0],[0.015,0.985,0],[0.25,0,0],[0.5,0,0],[0.75,0,0],[1,0.25,0],[1,0.5,0],[1,0.75,0],[0.75,1,0],[0.5,1,0],[0.25,1,0],[0,0.75,0],[0,0.5,0],[0,0.25,0]];verticalLabelPosition=bottom;html=1;verticalAlign=top;aspect=fixed;align=center;pointerEvents=1;shape=mxgraph.cisco19.rect;prIcon=l2_switch;fillColor=#FAFAFA;strokeColor=#005073;" vertex="1" parent="1">
          <mxGeometry x="950" y="509" width="50" height="50" as="geometry" />
        </mxCell>
        <mxCell id="QbsXGuNljw_qYiaYvnXY-18" value="OSP Tunnel vSwitch" style="sketch=0;points=[[0.015,0.015,0],[0.985,0.015,0],[0.985,0.985,0],[0.015,0.985,0],[0.25,0,0],[0.5,0,0],[0.75,0,0],[1,0.25,0],[1,0.5,0],[1,0.75,0],[0.75,1,0],[0.5,1,0],[0.25,1,0],[0,0.75,0],[0,0.5,0],[0,0.25,0]];verticalLabelPosition=bottom;html=1;verticalAlign=top;aspect=fixed;align=center;pointerEvents=1;shape=mxgraph.cisco19.rect;prIcon=l2_switch;fillColor=#FAFAFA;strokeColor=#005073;" vertex="1" parent="1">
          <mxGeometry x="950" y="610" width="50" height="50" as="geometry" />
        </mxCell>
        <mxCell id="QbsXGuNljw_qYiaYvnXY-19" value="OSP iSCSI vSwitch" style="sketch=0;points=[[0.015,0.015,0],[0.985,0.015,0],[0.985,0.985,0],[0.015,0.985,0],[0.25,0,0],[0.5,0,0],[0.75,0,0],[1,0.25,0],[1,0.5,0],[1,0.75,0],[0.75,1,0],[0.5,1,0],[0.25,1,0],[0,0.75,0],[0,0.5,0],[0,0.25,0]];verticalLabelPosition=bottom;html=1;verticalAlign=top;aspect=fixed;align=center;pointerEvents=1;shape=mxgraph.cisco19.rect;prIcon=l2_switch;fillColor=#FAFAFA;strokeColor=#005073;" vertex="1" parent="1">
          <mxGeometry x="950" y="719" width="50" height="50" as="geometry" />
        </mxCell>
        <mxCell id="QbsXGuNljw_qYiaYvnXY-20" value="&lt;div&gt;IP Public for VMs&lt;/div&gt;(Purchase public subnets from Hetzner)" style="text;html=1;align=center;verticalAlign=middle;whiteSpace=wrap;rounded=0;fillColor=default;" vertex="1" parent="1">
          <mxGeometry x="230" y="407.5" width="530" height="45" as="geometry" />
        </mxCell>
        <mxCell id="QbsXGuNljw_qYiaYvnXY-35" value="" style="endArrow=none;html=1;rounded=0;entryX=0.5;entryY=1;entryDx=0;entryDy=0;fillColor=#f8cecc;strokeColor=#b85450;strokeWidth=5;exitX=0.14;exitY=0.017;exitDx=0;exitDy=0;exitPerimeter=0;" edge="1" parent="1" target="QbsXGuNljw_qYiaYvnXY-33">
          <mxGeometry width="50" height="50" relative="1" as="geometry">
            <mxPoint x="425" y="505" as="sourcePoint" />
            <mxPoint x="415" y="350" as="targetPoint" />
          </mxGeometry>
        </mxCell>
        <mxCell id="QbsXGuNljw_qYiaYvnXY-33" value="enp0s31f6" style="rounded=1;whiteSpace=wrap;html=1;" vertex="1" parent="1">
          <mxGeometry x="385" y="300" width="80" height="40" as="geometry" />
        </mxCell>
        <mxCell id="QbsXGuNljw_qYiaYvnXY-34" value="" style="endArrow=none;html=1;rounded=0;entryX=0.25;entryY=1;entryDx=0;entryDy=0;exitX=0.116;exitY=0.017;exitDx=0;exitDy=0;exitPerimeter=0;strokeWidth=5;fillColor=#d5e8d4;strokeColor=#82b366;" edge="1" parent="1" target="QbsXGuNljw_qYiaYvnXY-33">
          <mxGeometry width="50" height="50" relative="1" as="geometry">
            <mxPoint x="405" y="401" as="sourcePoint" />
            <mxPoint x="715" y="400" as="targetPoint" />
          </mxGeometry>
        </mxCell>
        <mxCell id="QbsXGuNljw_qYiaYvnXY-36" value="" style="endArrow=none;html=1;rounded=0;entryX=0.75;entryY=1;entryDx=0;entryDy=0;exitX=0.163;exitY=0.025;exitDx=0;exitDy=0;exitPerimeter=0;fillColor=#fff2cc;strokeColor=#d6b656;strokeWidth=5;" edge="1" parent="1" target="QbsXGuNljw_qYiaYvnXY-33">
          <mxGeometry width="50" height="50" relative="1" as="geometry">
            <mxPoint x="445" y="616" as="sourcePoint" />
            <mxPoint x="435" y="350" as="targetPoint" />
          </mxGeometry>
        </mxCell>
        <mxCell id="QbsXGuNljw_qYiaYvnXY-37" value="enp0s31f6" style="rounded=1;whiteSpace=wrap;html=1;" vertex="1" parent="1">
          <mxGeometry x="653.39" y="300" width="80" height="40" as="geometry" />
        </mxCell>
        <mxCell id="QbsXGuNljw_qYiaYvnXY-38" value="" style="endArrow=none;html=1;rounded=0;entryX=0.25;entryY=1;entryDx=0;entryDy=0;exitX=0.116;exitY=0.017;exitDx=0;exitDy=0;exitPerimeter=0;strokeWidth=5;fillColor=#d5e8d4;strokeColor=#82b366;" edge="1" parent="1" target="QbsXGuNljw_qYiaYvnXY-37">
          <mxGeometry width="50" height="50" relative="1" as="geometry">
            <mxPoint x="673.39" y="401" as="sourcePoint" />
            <mxPoint x="983.39" y="400" as="targetPoint" />
          </mxGeometry>
        </mxCell>
        <mxCell id="QbsXGuNljw_qYiaYvnXY-39" value="" style="endArrow=none;html=1;rounded=0;entryX=0.5;entryY=1;entryDx=0;entryDy=0;fillColor=#f8cecc;strokeColor=#b85450;strokeWidth=5;exitX=0.14;exitY=0.017;exitDx=0;exitDy=0;exitPerimeter=0;" edge="1" parent="1" target="QbsXGuNljw_qYiaYvnXY-37">
          <mxGeometry width="50" height="50" relative="1" as="geometry">
            <mxPoint x="693.39" y="505" as="sourcePoint" />
            <mxPoint x="683.39" y="350" as="targetPoint" />
          </mxGeometry>
        </mxCell>
        <mxCell id="QbsXGuNljw_qYiaYvnXY-40" value="" style="endArrow=none;html=1;rounded=0;entryX=0.75;entryY=1;entryDx=0;entryDy=0;exitX=0.163;exitY=0.025;exitDx=0;exitDy=0;exitPerimeter=0;fillColor=#fff2cc;strokeColor=#d6b656;strokeWidth=5;" edge="1" parent="1" target="QbsXGuNljw_qYiaYvnXY-37">
          <mxGeometry width="50" height="50" relative="1" as="geometry">
            <mxPoint x="713.39" y="616" as="sourcePoint" />
            <mxPoint x="703.39" y="350" as="targetPoint" />
          </mxGeometry>
        </mxCell>
      </root>
    </mxGraphModel>
  </diagram>
</mxfile>
